<mxfile host="app.diagrams.net" agent="Mozilla/5.0 (Macintosh; Intel Mac OS X 10_15_7) AppleWebKit/537.36 (KHTML, like Gecko) Chrome/135.0.0.0 Safari/537.36" version="26.0.16">
  <diagram name="第 1 页" id="UgYxWPM2m7JwB7CC0WY4">
    <mxGraphModel dx="9909" dy="9596" grid="0" gridSize="10" guides="1" tooltips="1" connect="1" arrows="1" fold="1" page="1" pageScale="1" pageWidth="9000" pageHeight="9020" math="0" shadow="0">
      <root>
        <mxCell id="0" />
        <mxCell id="1" parent="0" />
        <mxCell id="0rFeJn9Vlhh-oOop-bB8-2" value="基础信息交互" style="text;html=1;align=center;verticalAlign=middle;whiteSpace=wrap;rounded=0;" vertex="1" parent="1">
          <mxGeometry x="-282" y="-2362" width="130" height="30" as="geometry" />
        </mxCell>
        <mxCell id="0rFeJn9Vlhh-oOop-bB8-3" value="核心&lt;div&gt;core trade&lt;/div&gt;" style="rounded=1;whiteSpace=wrap;html=1;" vertex="1" parent="1">
          <mxGeometry x="-308" y="-1964" width="120" height="60" as="geometry" />
        </mxCell>
        <mxCell id="0rFeJn9Vlhh-oOop-bB8-13" value="" style="edgeStyle=orthogonalEdgeStyle;rounded=0;orthogonalLoop=1;jettySize=auto;html=1;" edge="1" parent="1" source="0rFeJn9Vlhh-oOop-bB8-4" target="0rFeJn9Vlhh-oOop-bB8-12">
          <mxGeometry relative="1" as="geometry" />
        </mxCell>
        <mxCell id="0rFeJn9Vlhh-oOop-bB8-4" value="行情" style="rounded=1;whiteSpace=wrap;html=1;" vertex="1" parent="1">
          <mxGeometry x="-24" y="-2303" width="120" height="60" as="geometry" />
        </mxCell>
        <mxCell id="0rFeJn9Vlhh-oOop-bB8-5" value="" style="shape=flexArrow;endArrow=classic;html=1;rounded=0;" edge="1" parent="1">
          <mxGeometry width="50" height="50" relative="1" as="geometry">
            <mxPoint x="-156" y="-1930" as="sourcePoint" />
            <mxPoint x="-80" y="-1930" as="targetPoint" />
          </mxGeometry>
        </mxCell>
        <mxCell id="0rFeJn9Vlhh-oOop-bB8-15" value="" style="edgeStyle=orthogonalEdgeStyle;rounded=0;orthogonalLoop=1;jettySize=auto;html=1;" edge="1" parent="1" source="0rFeJn9Vlhh-oOop-bB8-6" target="0rFeJn9Vlhh-oOop-bB8-14">
          <mxGeometry relative="1" as="geometry" />
        </mxCell>
        <mxCell id="0rFeJn9Vlhh-oOop-bB8-6" value="合约" style="rounded=1;whiteSpace=wrap;html=1;" vertex="1" parent="1">
          <mxGeometry x="-24" y="-2208" width="120" height="60" as="geometry" />
        </mxCell>
        <mxCell id="0rFeJn9Vlhh-oOop-bB8-29" value="" style="edgeStyle=orthogonalEdgeStyle;rounded=0;orthogonalLoop=1;jettySize=auto;html=1;" edge="1" parent="1" source="0rFeJn9Vlhh-oOop-bB8-7" target="0rFeJn9Vlhh-oOop-bB8-28">
          <mxGeometry relative="1" as="geometry" />
        </mxCell>
        <mxCell id="0rFeJn9Vlhh-oOop-bB8-7" value="仓位" style="rounded=1;whiteSpace=wrap;html=1;" vertex="1" parent="1">
          <mxGeometry x="-27" y="-2066" width="120" height="60" as="geometry" />
        </mxCell>
        <mxCell id="0rFeJn9Vlhh-oOop-bB8-40" value="" style="edgeStyle=orthogonalEdgeStyle;rounded=0;orthogonalLoop=1;jettySize=auto;html=1;" edge="1" parent="1" source="0rFeJn9Vlhh-oOop-bB8-8" target="0rFeJn9Vlhh-oOop-bB8-39">
          <mxGeometry relative="1" as="geometry" />
        </mxCell>
        <mxCell id="0rFeJn9Vlhh-oOop-bB8-8" value="资金" style="rounded=1;whiteSpace=wrap;html=1;" vertex="1" parent="1">
          <mxGeometry x="-27" y="-1723" width="120" height="60" as="geometry" />
        </mxCell>
        <mxCell id="0rFeJn9Vlhh-oOop-bB8-19" value="" style="edgeStyle=orthogonalEdgeStyle;rounded=0;orthogonalLoop=1;jettySize=auto;html=1;" edge="1" parent="1" source="0rFeJn9Vlhh-oOop-bB8-9" target="0rFeJn9Vlhh-oOop-bB8-18">
          <mxGeometry relative="1" as="geometry" />
        </mxCell>
        <mxCell id="0rFeJn9Vlhh-oOop-bB8-9" value="手续费率" style="rounded=1;whiteSpace=wrap;html=1;" vertex="1" parent="1">
          <mxGeometry x="-24" y="-1459" width="120" height="60" as="geometry" />
        </mxCell>
        <mxCell id="0rFeJn9Vlhh-oOop-bB8-21" value="" style="edgeStyle=orthogonalEdgeStyle;rounded=0;orthogonalLoop=1;jettySize=auto;html=1;" edge="1" parent="1" source="0rFeJn9Vlhh-oOop-bB8-10" target="0rFeJn9Vlhh-oOop-bB8-20">
          <mxGeometry relative="1" as="geometry" />
        </mxCell>
        <mxCell id="0rFeJn9Vlhh-oOop-bB8-10" value="保证金" style="rounded=1;whiteSpace=wrap;html=1;" vertex="1" parent="1">
          <mxGeometry x="-26" y="-1379" width="120" height="60" as="geometry" />
        </mxCell>
        <mxCell id="0rFeJn9Vlhh-oOop-bB8-23" value="" style="edgeStyle=orthogonalEdgeStyle;rounded=0;orthogonalLoop=1;jettySize=auto;html=1;" edge="1" parent="1" source="0rFeJn9Vlhh-oOop-bB8-11" target="0rFeJn9Vlhh-oOop-bB8-22">
          <mxGeometry relative="1" as="geometry" />
        </mxCell>
        <mxCell id="0rFeJn9Vlhh-oOop-bB8-11" value="会员" style="rounded=1;whiteSpace=wrap;html=1;" vertex="1" parent="1">
          <mxGeometry x="-26" y="-1288" width="120" height="60" as="geometry" />
        </mxCell>
        <mxCell id="0rFeJn9Vlhh-oOop-bB8-12" value="保存内存" style="whiteSpace=wrap;html=1;rounded=1;" vertex="1" parent="1">
          <mxGeometry x="176" y="-2303" width="120" height="60" as="geometry" />
        </mxCell>
        <mxCell id="0rFeJn9Vlhh-oOop-bB8-14" value="保存内存" style="whiteSpace=wrap;html=1;rounded=1;" vertex="1" parent="1">
          <mxGeometry x="176" y="-2208" width="120" height="60" as="geometry" />
        </mxCell>
        <mxCell id="0rFeJn9Vlhh-oOop-bB8-18" value="保存内存" style="whiteSpace=wrap;html=1;rounded=1;" vertex="1" parent="1">
          <mxGeometry x="176" y="-1459" width="120" height="60" as="geometry" />
        </mxCell>
        <mxCell id="0rFeJn9Vlhh-oOop-bB8-20" value="保存内存" style="whiteSpace=wrap;html=1;rounded=1;" vertex="1" parent="1">
          <mxGeometry x="174" y="-1379" width="120" height="60" as="geometry" />
        </mxCell>
        <mxCell id="0rFeJn9Vlhh-oOop-bB8-22" value="保存内存" style="whiteSpace=wrap;html=1;rounded=1;" vertex="1" parent="1">
          <mxGeometry x="174" y="-1288" width="120" height="60" as="geometry" />
        </mxCell>
        <mxCell id="0rFeJn9Vlhh-oOop-bB8-31" value="" style="edgeStyle=orthogonalEdgeStyle;rounded=0;orthogonalLoop=1;jettySize=auto;html=1;" edge="1" parent="1" source="0rFeJn9Vlhh-oOop-bB8-28" target="0rFeJn9Vlhh-oOop-bB8-30">
          <mxGeometry relative="1" as="geometry" />
        </mxCell>
        <mxCell id="0rFeJn9Vlhh-oOop-bB8-34" value="" style="edgeStyle=orthogonalEdgeStyle;rounded=0;orthogonalLoop=1;jettySize=auto;html=1;" edge="1" parent="1" source="0rFeJn9Vlhh-oOop-bB8-28">
          <mxGeometry relative="1" as="geometry">
            <mxPoint x="336" y="-1952" as="targetPoint" />
            <Array as="points">
              <mxPoint x="233" y="-1952" />
            </Array>
          </mxGeometry>
        </mxCell>
        <mxCell id="0rFeJn9Vlhh-oOop-bB8-28" value="是否做市、接管" style="rhombus;whiteSpace=wrap;html=1;rounded=1;fillColor=#d5e8d4;strokeColor=#82b366;" vertex="1" parent="1">
          <mxGeometry x="193" y="-2076" width="80" height="80" as="geometry" />
        </mxCell>
        <mxCell id="0rFeJn9Vlhh-oOop-bB8-30" value="结束" style="whiteSpace=wrap;html=1;rounded=1;" vertex="1" parent="1">
          <mxGeometry x="333" y="-2066" width="120" height="60" as="geometry" />
        </mxCell>
        <mxCell id="0rFeJn9Vlhh-oOop-bB8-32" value="是" style="text;html=1;align=center;verticalAlign=middle;resizable=0;points=[];autosize=1;strokeColor=none;fillColor=none;" vertex="1" parent="1">
          <mxGeometry x="279" y="-2070" width="30" height="26" as="geometry" />
        </mxCell>
        <mxCell id="0rFeJn9Vlhh-oOop-bB8-42" value="" style="edgeStyle=orthogonalEdgeStyle;rounded=0;orthogonalLoop=1;jettySize=auto;html=1;" edge="1" parent="1" source="0rFeJn9Vlhh-oOop-bB8-39" target="0rFeJn9Vlhh-oOop-bB8-41">
          <mxGeometry relative="1" as="geometry" />
        </mxCell>
        <mxCell id="0rFeJn9Vlhh-oOop-bB8-45" value="" style="edgeStyle=orthogonalEdgeStyle;rounded=0;orthogonalLoop=1;jettySize=auto;html=1;" edge="1" parent="1" source="0rFeJn9Vlhh-oOop-bB8-39">
          <mxGeometry relative="1" as="geometry">
            <mxPoint x="333" y="-1506" as="targetPoint" />
            <Array as="points">
              <mxPoint x="233" y="-1508" />
              <mxPoint x="331" y="-1508" />
            </Array>
          </mxGeometry>
        </mxCell>
        <mxCell id="0rFeJn9Vlhh-oOop-bB8-71" style="edgeStyle=orthogonalEdgeStyle;rounded=0;orthogonalLoop=1;jettySize=auto;html=1;" edge="1" parent="1" source="0rFeJn9Vlhh-oOop-bB8-39">
          <mxGeometry relative="1" as="geometry">
            <mxPoint x="332" y="-1600" as="targetPoint" />
            <Array as="points">
              <mxPoint x="233" y="-1607" />
              <mxPoint x="333" y="-1607" />
            </Array>
          </mxGeometry>
        </mxCell>
        <mxCell id="0rFeJn9Vlhh-oOop-bB8-39" value="是否做市、接管" style="rhombus;whiteSpace=wrap;html=1;rounded=1;fillColor=#d5e8d4;strokeColor=#82b366;" vertex="1" parent="1">
          <mxGeometry x="193" y="-1733" width="80" height="80" as="geometry" />
        </mxCell>
        <mxCell id="0rFeJn9Vlhh-oOop-bB8-41" value="结束" style="whiteSpace=wrap;html=1;rounded=1;" vertex="1" parent="1">
          <mxGeometry x="333" y="-1723" width="120" height="60" as="geometry" />
        </mxCell>
        <mxCell id="0rFeJn9Vlhh-oOop-bB8-43" value="是" style="text;html=1;align=center;verticalAlign=middle;resizable=0;points=[];autosize=1;strokeColor=none;fillColor=none;" vertex="1" parent="1">
          <mxGeometry x="284" y="-1722" width="30" height="26" as="geometry" />
        </mxCell>
        <mxCell id="0rFeJn9Vlhh-oOop-bB8-50" value="" style="edgeStyle=orthogonalEdgeStyle;rounded=0;orthogonalLoop=1;jettySize=auto;html=1;" edge="1" parent="1" source="0rFeJn9Vlhh-oOop-bB8-48" target="0rFeJn9Vlhh-oOop-bB8-49">
          <mxGeometry relative="1" as="geometry" />
        </mxCell>
        <mxCell id="0rFeJn9Vlhh-oOop-bB8-48" value="占用保证金0" style="rhombus;whiteSpace=wrap;html=1;fillColor=#f8cecc;strokeColor=#b85450;" vertex="1" parent="1">
          <mxGeometry x="335" y="-1550" width="80" height="80" as="geometry" />
        </mxCell>
        <mxCell id="0rFeJn9Vlhh-oOop-bB8-49" value="删除、更新&lt;div&gt;浮动盈亏&lt;/div&gt;" style="whiteSpace=wrap;html=1;fillColor=#f8cecc;strokeColor=#b85450;" vertex="1" parent="1">
          <mxGeometry x="475" y="-1540" width="120" height="60" as="geometry" />
        </mxCell>
        <mxCell id="0rFeJn9Vlhh-oOop-bB8-51" value="是" style="text;html=1;align=center;verticalAlign=middle;resizable=0;points=[];autosize=1;strokeColor=none;fillColor=none;" vertex="1" parent="1">
          <mxGeometry x="421" y="-1536" width="30" height="26" as="geometry" />
        </mxCell>
        <mxCell id="0rFeJn9Vlhh-oOop-bB8-54" value="" style="edgeStyle=orthogonalEdgeStyle;rounded=0;orthogonalLoop=1;jettySize=auto;html=1;" edge="1" parent="1" source="0rFeJn9Vlhh-oOop-bB8-52" target="0rFeJn9Vlhh-oOop-bB8-53">
          <mxGeometry relative="1" as="geometry" />
        </mxCell>
        <mxCell id="0rFeJn9Vlhh-oOop-bB8-52" value="成交" style="rounded=1;whiteSpace=wrap;html=1;fillColor=#d5e8d4;strokeColor=#82b366;" vertex="1" parent="1">
          <mxGeometry x="-28" y="-1186" width="120" height="60" as="geometry" />
        </mxCell>
        <mxCell id="0rFeJn9Vlhh-oOop-bB8-53" value="触发强平计算" style="whiteSpace=wrap;html=1;rounded=1;fillColor=#d5e8d4;strokeColor=#82b366;" vertex="1" parent="1">
          <mxGeometry x="172" y="-1186" width="120" height="60" as="geometry" />
        </mxCell>
        <mxCell id="0rFeJn9Vlhh-oOop-bB8-57" value="" style="edgeStyle=orthogonalEdgeStyle;rounded=0;orthogonalLoop=1;jettySize=auto;html=1;" edge="1" parent="1" source="0rFeJn9Vlhh-oOop-bB8-55" target="0rFeJn9Vlhh-oOop-bB8-56">
          <mxGeometry relative="1" as="geometry" />
        </mxCell>
        <mxCell id="0rFeJn9Vlhh-oOop-bB8-62" value="" style="edgeStyle=orthogonalEdgeStyle;rounded=0;orthogonalLoop=1;jettySize=auto;html=1;" edge="1" parent="1" source="0rFeJn9Vlhh-oOop-bB8-55" target="0rFeJn9Vlhh-oOop-bB8-61">
          <mxGeometry relative="1" as="geometry" />
        </mxCell>
        <mxCell id="0rFeJn9Vlhh-oOop-bB8-55" value="是否清仓" style="rhombus;whiteSpace=wrap;html=1;" vertex="1" parent="1">
          <mxGeometry x="335" y="-1992" width="80" height="80" as="geometry" />
        </mxCell>
        <mxCell id="0rFeJn9Vlhh-oOop-bB8-60" value="" style="edgeStyle=orthogonalEdgeStyle;rounded=0;orthogonalLoop=1;jettySize=auto;html=1;" edge="1" parent="1" source="0rFeJn9Vlhh-oOop-bB8-56" target="0rFeJn9Vlhh-oOop-bB8-59">
          <mxGeometry relative="1" as="geometry" />
        </mxCell>
        <mxCell id="0rFeJn9Vlhh-oOop-bB8-56" value="清除本地内存" style="whiteSpace=wrap;html=1;" vertex="1" parent="1">
          <mxGeometry x="501" y="-1982" width="120" height="60" as="geometry" />
        </mxCell>
        <mxCell id="0rFeJn9Vlhh-oOop-bB8-58" value="是" style="text;html=1;align=center;verticalAlign=middle;resizable=0;points=[];autosize=1;strokeColor=none;fillColor=none;" vertex="1" parent="1">
          <mxGeometry x="427" y="-1976" width="30" height="26" as="geometry" />
        </mxCell>
        <mxCell id="0rFeJn9Vlhh-oOop-bB8-59" value="清除redis强平信息" style="whiteSpace=wrap;html=1;fillColor=#d5e8d4;strokeColor=#82b366;" vertex="1" parent="1">
          <mxGeometry x="675" y="-1982" width="120" height="60" as="geometry" />
        </mxCell>
        <mxCell id="0rFeJn9Vlhh-oOop-bB8-65" value="" style="edgeStyle=orthogonalEdgeStyle;rounded=0;orthogonalLoop=1;jettySize=auto;html=1;" edge="1" parent="1" source="0rFeJn9Vlhh-oOop-bB8-61" target="0rFeJn9Vlhh-oOop-bB8-64">
          <mxGeometry relative="1" as="geometry" />
        </mxCell>
        <mxCell id="0rFeJn9Vlhh-oOop-bB8-61" value="更新内存" style="whiteSpace=wrap;html=1;" vertex="1" parent="1">
          <mxGeometry x="315" y="-1861" width="120" height="60" as="geometry" />
        </mxCell>
        <mxCell id="0rFeJn9Vlhh-oOop-bB8-63" value="否" style="text;html=1;align=center;verticalAlign=middle;resizable=0;points=[];autosize=1;strokeColor=none;fillColor=none;" vertex="1" parent="1">
          <mxGeometry x="371" y="-1905" width="30" height="26" as="geometry" />
        </mxCell>
        <mxCell id="0rFeJn9Vlhh-oOop-bB8-67" value="" style="edgeStyle=orthogonalEdgeStyle;rounded=0;orthogonalLoop=1;jettySize=auto;html=1;" edge="1" parent="1" source="0rFeJn9Vlhh-oOop-bB8-64" target="0rFeJn9Vlhh-oOop-bB8-66">
          <mxGeometry relative="1" as="geometry" />
        </mxCell>
        <mxCell id="0rFeJn9Vlhh-oOop-bB8-64" value="是否逐仓" style="rhombus;whiteSpace=wrap;html=1;fillColor=#d5e8d4;strokeColor=#82b366;" vertex="1" parent="1">
          <mxGeometry x="497" y="-1871" width="80" height="80" as="geometry" />
        </mxCell>
        <mxCell id="0rFeJn9Vlhh-oOop-bB8-66" value="触发计算强平" style="whiteSpace=wrap;html=1;fillColor=#d5e8d4;strokeColor=#82b366;" vertex="1" parent="1">
          <mxGeometry x="637" y="-1861" width="120" height="60" as="geometry" />
        </mxCell>
        <mxCell id="0rFeJn9Vlhh-oOop-bB8-68" value="是" style="text;html=1;align=center;verticalAlign=middle;resizable=0;points=[];autosize=1;strokeColor=none;fillColor=none;" vertex="1" parent="1">
          <mxGeometry x="582" y="-1864" width="30" height="26" as="geometry" />
        </mxCell>
        <mxCell id="0rFeJn9Vlhh-oOop-bB8-73" value="" style="edgeStyle=orthogonalEdgeStyle;rounded=0;orthogonalLoop=1;jettySize=auto;html=1;" edge="1" parent="1" source="0rFeJn9Vlhh-oOop-bB8-70" target="0rFeJn9Vlhh-oOop-bB8-72">
          <mxGeometry relative="1" as="geometry" />
        </mxCell>
        <mxCell id="0rFeJn9Vlhh-oOop-bB8-70" value="是否全仓" style="rhombus;whiteSpace=wrap;html=1;fillColor=#d5e8d4;strokeColor=#82b366;" vertex="1" parent="1">
          <mxGeometry x="333" y="-1646" width="80" height="80" as="geometry" />
        </mxCell>
        <mxCell id="0rFeJn9Vlhh-oOop-bB8-72" value="触发计算强平" style="whiteSpace=wrap;html=1;fillColor=#d5e8d4;strokeColor=#82b366;" vertex="1" parent="1">
          <mxGeometry x="473" y="-1636" width="120" height="60" as="geometry" />
        </mxCell>
        <mxCell id="0rFeJn9Vlhh-oOop-bB8-74" value="是" style="text;html=1;align=center;verticalAlign=middle;resizable=0;points=[];autosize=1;strokeColor=none;fillColor=none;" vertex="1" parent="1">
          <mxGeometry x="414" y="-1640" width="30" height="26" as="geometry" />
        </mxCell>
        <mxCell id="0rFeJn9Vlhh-oOop-bB8-75" value="合约" style="rounded=0;whiteSpace=wrap;html=1;" vertex="1" parent="1">
          <mxGeometry x="-354" y="-1028" width="120" height="60" as="geometry" />
        </mxCell>
        <mxCell id="0rFeJn9Vlhh-oOop-bB8-76" value="维持保证金比率" style="text;html=1;align=center;verticalAlign=middle;resizable=0;points=[];autosize=1;strokeColor=none;fillColor=none;" vertex="1" parent="1">
          <mxGeometry x="683" y="-2009" width="102" height="26" as="geometry" />
        </mxCell>
        <mxCell id="0rFeJn9Vlhh-oOop-bB8-77" value="" style="shape=flexArrow;endArrow=classic;html=1;rounded=0;width=8;endSize=5.32;" edge="1" parent="1">
          <mxGeometry width="50" height="50" relative="1" as="geometry">
            <mxPoint x="-199" y="-998.5" as="sourcePoint" />
            <mxPoint x="-126" y="-998.5" as="targetPoint" />
          </mxGeometry>
        </mxCell>
        <mxCell id="0rFeJn9Vlhh-oOop-bB8-83" value="" style="edgeStyle=orthogonalEdgeStyle;rounded=0;orthogonalLoop=1;jettySize=auto;html=1;" edge="1" parent="1" source="0rFeJn9Vlhh-oOop-bB8-78" target="0rFeJn9Vlhh-oOop-bB8-82">
          <mxGeometry relative="1" as="geometry" />
        </mxCell>
        <mxCell id="0rFeJn9Vlhh-oOop-bB8-78" value="全量" style="rounded=1;whiteSpace=wrap;html=1;fillColor=#d5e8d4;strokeColor=#82b366;" vertex="1" parent="1">
          <mxGeometry x="-45" y="-1028" width="120" height="60" as="geometry" />
        </mxCell>
        <mxCell id="0rFeJn9Vlhh-oOop-bB8-80" value="合约保证金" style="text;html=1;align=center;verticalAlign=middle;resizable=0;points=[];autosize=1;strokeColor=none;fillColor=none;" vertex="1" parent="1">
          <mxGeometry x="-346" y="-1095" width="78" height="26" as="geometry" />
        </mxCell>
        <mxCell id="0rFeJn9Vlhh-oOop-bB8-85" value="" style="edgeStyle=orthogonalEdgeStyle;rounded=0;orthogonalLoop=1;jettySize=auto;html=1;" edge="1" parent="1" source="0rFeJn9Vlhh-oOop-bB8-81" target="0rFeJn9Vlhh-oOop-bB8-84">
          <mxGeometry relative="1" as="geometry" />
        </mxCell>
        <mxCell id="0rFeJn9Vlhh-oOop-bB8-81" value="增量" style="rounded=1;whiteSpace=wrap;html=1;fillColor=#d5e8d4;strokeColor=#82b366;" vertex="1" parent="1">
          <mxGeometry x="-47" y="-899" width="120" height="60" as="geometry" />
        </mxCell>
        <mxCell id="0rFeJn9Vlhh-oOop-bB8-89" value="" style="edgeStyle=orthogonalEdgeStyle;rounded=0;orthogonalLoop=1;jettySize=auto;html=1;" edge="1" parent="1" source="0rFeJn9Vlhh-oOop-bB8-82" target="0rFeJn9Vlhh-oOop-bB8-88">
          <mxGeometry relative="1" as="geometry" />
        </mxCell>
        <mxCell id="0rFeJn9Vlhh-oOop-bB8-82" value="cfd redis获取" style="whiteSpace=wrap;html=1;rounded=1;fillColor=#d5e8d4;strokeColor=#82b366;" vertex="1" parent="1">
          <mxGeometry x="155" y="-1028" width="120" height="60" as="geometry" />
        </mxCell>
        <mxCell id="0rFeJn9Vlhh-oOop-bB8-87" value="" style="edgeStyle=orthogonalEdgeStyle;rounded=0;orthogonalLoop=1;jettySize=auto;html=1;" edge="1" parent="1" source="0rFeJn9Vlhh-oOop-bB8-84" target="0rFeJn9Vlhh-oOop-bB8-86">
          <mxGeometry relative="1" as="geometry" />
        </mxCell>
        <mxCell id="0rFeJn9Vlhh-oOop-bB8-84" value="rocketmq" style="whiteSpace=wrap;html=1;rounded=1;fillColor=#d5e8d4;strokeColor=#82b366;" vertex="1" parent="1">
          <mxGeometry x="160" y="-899" width="120" height="60" as="geometry" />
        </mxCell>
        <mxCell id="0rFeJn9Vlhh-oOop-bB8-86" value="根据时间戳判断是否更新" style="whiteSpace=wrap;html=1;fillColor=#d5e8d4;strokeColor=#82b366;rounded=1;" vertex="1" parent="1">
          <mxGeometry x="360" y="-899" width="120" height="60" as="geometry" />
        </mxCell>
        <mxCell id="0rFeJn9Vlhh-oOop-bB8-88" value="项目启动只执行一次" style="whiteSpace=wrap;html=1;fillColor=#d5e8d4;strokeColor=#82b366;rounded=1;" vertex="1" parent="1">
          <mxGeometry x="355" y="-1028" width="120" height="60" as="geometry" />
        </mxCell>
        <mxCell id="0rFeJn9Vlhh-oOop-bB8-90" value="计算强平" style="text;html=1;align=center;verticalAlign=middle;whiteSpace=wrap;rounded=0;" vertex="1" parent="1">
          <mxGeometry x="-334" y="-768" width="60" height="30" as="geometry" />
        </mxCell>
        <mxCell id="0rFeJn9Vlhh-oOop-bB8-91" value="开始" style="rounded=1;whiteSpace=wrap;html=1;" vertex="1" parent="1">
          <mxGeometry x="-41" y="-752" width="120" height="60" as="geometry" />
        </mxCell>
        <mxCell id="0rFeJn9Vlhh-oOop-bB8-94" value="" style="edgeStyle=orthogonalEdgeStyle;rounded=0;orthogonalLoop=1;jettySize=auto;html=1;" edge="1" parent="1" source="0rFeJn9Vlhh-oOop-bB8-92" target="0rFeJn9Vlhh-oOop-bB8-93">
          <mxGeometry relative="1" as="geometry" />
        </mxCell>
        <mxCell id="0rFeJn9Vlhh-oOop-bB8-92" value="定时信息" style="rounded=1;whiteSpace=wrap;html=1;" vertex="1" parent="1">
          <mxGeometry x="-24" y="-2411" width="120" height="60" as="geometry" />
        </mxCell>
        <mxCell id="0rFeJn9Vlhh-oOop-bB8-93" value="触发计算强平" style="whiteSpace=wrap;html=1;rounded=1;fillColor=#d5e8d4;strokeColor=#82b366;" vertex="1" parent="1">
          <mxGeometry x="176" y="-2411" width="120" height="60" as="geometry" />
        </mxCell>
      </root>
    </mxGraphModel>
  </diagram>
</mxfile>
